<?xml version="1.0" standalone="no"?><!DOCTYPE svg PUBLIC "-//W3C//DTD SVG 1.1//EN" "http://www.w3.org/Graphics/SVG/1.1/DTD/svg11.dtd"><svg t="1728874789588" class="icon" viewBox="0 0 1024 1024" version="1.1" xmlns="http://www.w3.org/2000/svg" p-id="1519" xmlns:xlink="http://www.w3.org/1999/xlink" width="128" height="128"><path d="M85.333333 192A106.666667 106.666667 0 0 1 192 85.333333h640A106.666667 106.666667 0 0 1 938.666667 192v640a106.666667 106.666667 0 0 1-106.666667 106.666667h-640A106.666667 106.666667 0 0 1 85.333333 832v-640zM512 298.666667a42.666667 42.666667 0 0 0-42.666667 42.666666v128H341.333333a42.666667 42.666667 0 1 0 0 85.333334h128v128a42.666667 42.666667 0 1 0 85.333334 0v-128h128a42.666667 42.666667 0 1 0 0-85.333334h-128V341.333333a42.666667 42.666667 0 0 0-42.666667-42.666666z" fill="#1890ff" fill-opacity=".85" p-id="1520"></path></svg>